<svg xmlns="http://www.w3.org/2000/svg" version="1.1" xmlns:xlink="http://www.w3.org/1999/xlink" xmlns:svgjs="http://svgjs.com/svgjs" width="1440" height="560" preserveAspectRatio="none" viewBox="0 0 1440 560"><g mask="url(&quot;#SvgjsMask4606&quot;)" fill="none"><rect width="1440" height="560" x="0" y="0" fill="url(#SvgjsLinearGradient4607)"></rect><path d="M1440 0L770.23 0L1440 57.89z" fill="rgba(255, 255, 255, .1)"></path><path d="M770.23 0L1440 57.89L1440 82.86L585.88 0z" fill="rgba(255, 255, 255, .075)"></path><path d="M585.88 0L1440 82.86L1440 283.76L474.21 0z" fill="rgba(255, 255, 255, .05)"></path><path d="M474.21000000000004 0L1440 283.76L1440 422.67999999999995L367.42 0z" fill="rgba(255, 255, 255, .025)"></path><path d="M0 560L593.19 560L0 444.96z" fill="rgba(0, 0, 0, .1)"></path><path d="M0 444.96L593.19 560L650.73 560L0 324.61z" fill="rgba(0, 0, 0, .075)"></path><path d="M0 324.61L650.73 560L834.23 560L0 212.70000000000002z" fill="rgba(0, 0, 0, .05)"></path><path d="M0 212.70000000000005L834.23 560L1252.01 560L0 147.94000000000005z" fill="rgba(0, 0, 0, .025)"></path></g><defs><mask id="SvgjsMask4606"><rect width="1440" height="560" fill="#ffffff"></rect></mask><linearGradient x1="15.28%" y1="139.29%" x2="84.72%" y2="-39.29%" gradientUnits="userSpaceOnUse" id="SvgjsLinearGradient4607"><stop stop-color="rgba(0, 0, 0, 0.99)" offset="0"></stop><stop stop-color="rgba(45, 57, 82, 1)" offset="1"></stop></linearGradient></defs></svg>